<mxfile host="65bd71144e">
    <diagram id="E5uNeuyMsPrgR23q8JO6" name="PÃ¡gina-1">
        <mxGraphModel dx="1242" dy="814" grid="1" gridSize="7" guides="1" tooltips="1" connect="1" arrows="1" fold="1" page="1" pageScale="1" pageWidth="2027" pageHeight="1769" math="0" shadow="0">
            <root>
                <mxCell id="0"/>
                <mxCell id="1" parent="0"/>
                <mxCell id="12" style="edgeStyle=none;rounded=1;html=1;startArrow=ERone;startFill=0;endArrow=ERoneToMany;endFill=0;" edge="1" parent="1" source="2" target="3">
                    <mxGeometry relative="1" as="geometry"/>
                </mxCell>
                <mxCell id="2" value="Pais" style="rounded=0;whiteSpace=wrap;html=1;" vertex="1" parent="1">
                    <mxGeometry x="168" y="63" width="91" height="35" as="geometry"/>
                </mxCell>
                <mxCell id="13" style="edgeStyle=none;rounded=1;html=1;entryX=0.5;entryY=0;entryDx=0;entryDy=0;startArrow=ERone;startFill=0;endArrow=ERoneToMany;endFill=0;" edge="1" parent="1" source="3" target="4">
                    <mxGeometry relative="1" as="geometry"/>
                </mxCell>
                <mxCell id="3" value="Departamentos" style="rounded=0;whiteSpace=wrap;html=1;" vertex="1" parent="1">
                    <mxGeometry x="168" y="154" width="91" height="35" as="geometry"/>
                </mxCell>
                <mxCell id="59" style="edgeStyle=none;rounded=1;html=1;fontSize=12;startArrow=ERone;startFill=0;endArrow=ERoneToMany;endFill=0;startSize=6;endSize=6;" edge="1" parent="1" source="4" target="5">
                    <mxGeometry relative="1" as="geometry"/>
                </mxCell>
                <mxCell id="4" value="Ciudad" style="rounded=0;whiteSpace=wrap;html=1;" vertex="1" parent="1">
                    <mxGeometry x="168" y="243.5" width="91" height="35" as="geometry"/>
                </mxCell>
                <mxCell id="62" style="edgeStyle=none;rounded=0;html=1;entryX=0;entryY=0.5;entryDx=0;entryDy=0;fontSize=12;startArrow=ERone;startFill=0;endArrow=ERoneToMany;endFill=0;startSize=6;endSize=6;fillColor=#0050ef;strokeColor=#001DBC;" edge="1" parent="1" source="5" target="32">
                    <mxGeometry relative="1" as="geometry">
                        <Array as="points">
                            <mxPoint x="679" y="259"/>
                        </Array>
                    </mxGeometry>
                </mxCell>
                <mxCell id="80" style="edgeStyle=none;rounded=0;html=1;entryX=0.5;entryY=1;entryDx=0;entryDy=0;fontSize=12;startArrow=ERone;startFill=0;endArrow=ERoneToMany;endFill=0;startSize=6;endSize=6;fillColor=#d80073;strokeColor=#A50040;" edge="1" parent="1" source="5" target="17">
                    <mxGeometry relative="1" as="geometry">
                        <Array as="points">
                            <mxPoint x="441" y="238"/>
                            <mxPoint x="522" y="91"/>
                        </Array>
                    </mxGeometry>
                </mxCell>
                <mxCell id="85" style="edgeStyle=none;rounded=0;html=1;entryX=0.5;entryY=0;entryDx=0;entryDy=0;fontSize=12;startArrow=ERone;startFill=0;endArrow=ERoneToMany;endFill=0;startSize=6;endSize=6;" edge="1" parent="1" source="5" target="81">
                    <mxGeometry relative="1" as="geometry"/>
                </mxCell>
                <mxCell id="5" value="Sucursal" style="rounded=0;whiteSpace=wrap;html=1;" vertex="1" parent="1">
                    <mxGeometry x="392" y="243.5" width="98" height="35" as="geometry"/>
                </mxCell>
                <mxCell id="63" style="edgeStyle=none;rounded=1;html=1;entryX=0;entryY=0.5;entryDx=0;entryDy=0;fontSize=12;startArrow=ERone;startFill=0;endArrow=ERoneToMany;endFill=0;startSize=6;endSize=6;fillColor=#a20025;strokeColor=#6F0000;" edge="1" parent="1" source="14" target="32">
                    <mxGeometry relative="1" as="geometry">
                        <Array as="points">
                            <mxPoint x="686" y="259"/>
                        </Array>
                    </mxGeometry>
                </mxCell>
                <mxCell id="117" style="edgeStyle=none;rounded=1;html=1;fontSize=12;startArrow=ERone;startFill=0;endArrow=ERoneToMany;endFill=0;startSize=6;endSize=6;fillColor=#1ba1e2;strokeColor=#006EAF;" edge="1" parent="1" source="14" target="41">
                    <mxGeometry relative="1" as="geometry"/>
                </mxCell>
                <mxCell id="14" value="User" style="rounded=0;whiteSpace=wrap;html=1;" vertex="1" parent="1">
                    <mxGeometry x="392" y="154" width="98" height="35" as="geometry"/>
                </mxCell>
                <mxCell id="60" style="edgeStyle=none;rounded=1;html=1;entryX=0.5;entryY=0;entryDx=0;entryDy=0;fontSize=12;startArrow=ERone;startFill=0;endArrow=ERoneToMany;endFill=0;startSize=6;endSize=6;fillColor=#1ba1e2;strokeColor=#006EAF;" edge="1" parent="1" source="15" target="14">
                    <mxGeometry relative="1" as="geometry">
                        <Array as="points">
                            <mxPoint x="362" y="77"/>
                            <mxPoint x="441" y="133"/>
                        </Array>
                    </mxGeometry>
                </mxCell>
                <mxCell id="87" style="edgeStyle=none;rounded=0;html=1;fontSize=12;startArrow=ERone;startFill=0;endArrow=ERoneToMany;endFill=0;startSize=6;endSize=6;fillColor=#60a917;strokeColor=#2D7600;" edge="1" parent="1" source="15" target="43">
                    <mxGeometry relative="1" as="geometry">
                        <Array as="points">
                            <mxPoint x="774" y="343"/>
                        </Array>
                    </mxGeometry>
                </mxCell>
                <mxCell id="139" style="edgeStyle=none;rounded=1;html=1;fontSize=12;startArrow=ERone;startFill=0;endArrow=ERoneToMany;endFill=0;startSize=6;endSize=6;fillColor=#dae8fc;gradientColor=#7ea6e0;strokeColor=#6c8ebf;" edge="1" parent="1" source="15" target="32">
                    <mxGeometry relative="1" as="geometry"/>
                </mxCell>
                <mxCell id="15" value="Cliente" style="rounded=0;whiteSpace=wrap;html=1;" vertex="1" parent="1">
                    <mxGeometry x="309" y="35" width="105" height="33.5" as="geometry"/>
                </mxCell>
                <mxCell id="61" style="edgeStyle=none;html=1;entryX=0.5;entryY=0;entryDx=0;entryDy=0;fontSize=12;startArrow=ERone;startFill=0;endArrow=ERoneToMany;endFill=0;startSize=6;endSize=6;rounded=1;fillColor=#a20025;strokeColor=#6F0000;" edge="1" parent="1" source="17" target="14">
                    <mxGeometry relative="1" as="geometry">
                        <Array as="points">
                            <mxPoint x="522" y="77"/>
                            <mxPoint x="441" y="133"/>
                        </Array>
                    </mxGeometry>
                </mxCell>
                <mxCell id="110" style="edgeStyle=none;rounded=1;html=1;fontSize=12;startArrow=ERone;startFill=0;endArrow=ERoneToMany;endFill=0;startSize=6;endSize=6;fillColor=#d80073;strokeColor=#A50040;" edge="1" parent="1" source="17" target="108">
                    <mxGeometry relative="1" as="geometry"/>
                </mxCell>
                <mxCell id="17" value="Empleado" style="rounded=0;whiteSpace=wrap;html=1;" vertex="1" parent="1">
                    <mxGeometry x="469" y="56" width="105" height="33.5" as="geometry"/>
                </mxCell>
                <mxCell id="133" style="edgeStyle=none;rounded=1;html=1;fontSize=12;startArrow=ERone;startFill=0;endArrow=ERoneToMany;endFill=0;startSize=6;endSize=6;" edge="1" parent="1" source="32" target="34">
                    <mxGeometry relative="1" as="geometry"/>
                </mxCell>
                <mxCell id="32" value="Factura" style="rounded=0;whiteSpace=wrap;html=1;fontSize=12;" vertex="1" parent="1">
                    <mxGeometry x="735" y="231" width="120" height="60" as="geometry"/>
                </mxCell>
                <mxCell id="135" style="edgeStyle=none;rounded=1;html=1;fontSize=12;startArrow=ERone;startFill=0;endArrow=ERoneToMany;endFill=0;startSize=6;endSize=6;" edge="1" parent="1" source="33" target="32">
                    <mxGeometry relative="1" as="geometry"/>
                </mxCell>
                <mxCell id="33" value="CierreOrden" style="rounded=0;whiteSpace=wrap;html=1;fontSize=12;" vertex="1" parent="1">
                    <mxGeometry x="735" y="112" width="120" height="60" as="geometry"/>
                </mxCell>
                <mxCell id="111" style="edgeStyle=none;rounded=1;html=1;fontSize=12;startArrow=ERone;startFill=0;endArrow=ERoneToMany;endFill=0;startSize=6;endSize=6;fillColor=#0050ef;strokeColor=#001DBC;" edge="1" parent="1" source="34" target="108">
                    <mxGeometry relative="1" as="geometry"/>
                </mxCell>
                <mxCell id="116" style="edgeStyle=none;rounded=1;html=1;fontSize=12;startArrow=ERone;startFill=0;endArrow=ERoneToMany;endFill=0;startSize=6;endSize=6;" edge="1" parent="1" source="34" target="40">
                    <mxGeometry relative="1" as="geometry"/>
                </mxCell>
                <mxCell id="138" style="edgeStyle=none;rounded=1;html=1;fontSize=12;startArrow=ERone;startFill=0;endArrow=ERoneToMany;endFill=0;startSize=6;endSize=6;" edge="1" parent="1" source="34" target="137">
                    <mxGeometry relative="1" as="geometry"/>
                </mxCell>
                <mxCell id="34" value="Servicio" style="rounded=0;whiteSpace=wrap;html=1;fontSize=12;" vertex="1" parent="1">
                    <mxGeometry x="924" y="231" width="112" height="56" as="geometry"/>
                </mxCell>
                <mxCell id="65" style="edgeStyle=none;rounded=0;html=1;entryX=0.5;entryY=0;entryDx=0;entryDy=0;fontSize=12;startArrow=ERone;startFill=0;endArrow=ERoneToMany;endFill=0;startSize=6;endSize=6;" edge="1" parent="1" source="35" target="34">
                    <mxGeometry relative="1" as="geometry"/>
                </mxCell>
                <mxCell id="35" value="EstadoServicio" style="rounded=0;whiteSpace=wrap;html=1;fontSize=12;" vertex="1" parent="1">
                    <mxGeometry x="924" y="105" width="120" height="60" as="geometry"/>
                </mxCell>
                <mxCell id="71" style="edgeStyle=none;rounded=1;html=1;fontSize=12;startArrow=ERone;startFill=0;endArrow=ERoneToMany;endFill=0;startSize=6;endSize=6;fillColor=#0050ef;strokeColor=#001DBC;" edge="1" parent="1" source="39" target="34">
                    <mxGeometry relative="1" as="geometry">
                        <mxPoint x="1022" y="210" as="targetPoint"/>
                        <Array as="points">
                            <mxPoint x="984" y="210"/>
                        </Array>
                    </mxGeometry>
                </mxCell>
                <mxCell id="39" value="TipoServicio" style="rounded=0;whiteSpace=wrap;html=1;fontSize=12;" vertex="1" parent="1">
                    <mxGeometry x="1085" y="105" width="120" height="60" as="geometry"/>
                </mxCell>
                <mxCell id="40" value="Diagnostico" style="rounded=0;whiteSpace=wrap;html=1;fontSize=12;" vertex="1" parent="1">
                    <mxGeometry x="909" y="364.75" width="120" height="60" as="geometry"/>
                </mxCell>
                <mxCell id="70" style="edgeStyle=none;rounded=0;html=1;fontSize=12;startArrow=ERone;startFill=0;endArrow=ERoneToMany;endFill=0;startSize=6;endSize=6;fillColor=#60a917;strokeColor=#2D7600;" edge="1" parent="1" source="41" target="40">
                    <mxGeometry relative="1" as="geometry"/>
                </mxCell>
                <mxCell id="41" value="TipoDiagnostico" style="rounded=0;whiteSpace=wrap;html=1;fontSize=12;" vertex="1" parent="1">
                    <mxGeometry x="1029" y="532" width="120" height="60" as="geometry"/>
                </mxCell>
                <mxCell id="66" style="edgeStyle=none;rounded=0;html=1;fontSize=12;startArrow=ERone;startFill=0;endArrow=ERoneToMany;endFill=0;startSize=6;endSize=6;fillColor=#0050ef;strokeColor=#001DBC;" edge="1" parent="1" source="43" target="32">
                    <mxGeometry relative="1" as="geometry">
                        <mxPoint x="777" y="294" as="targetPoint"/>
                        <Array as="points">
                            <mxPoint x="795" y="336"/>
                        </Array>
                    </mxGeometry>
                </mxCell>
                <mxCell id="128" style="edgeStyle=none;rounded=1;html=1;fontSize=12;startArrow=ERone;startFill=0;endArrow=ERoneToMany;endFill=0;startSize=6;endSize=6;fillColor=#d80073;strokeColor=#A50040;" edge="1" parent="1" source="43" target="34">
                    <mxGeometry relative="1" as="geometry"/>
                </mxCell>
                <mxCell id="142" style="edgeStyle=none;rounded=1;html=1;fontSize=12;startArrow=ERone;startFill=0;endArrow=ERoneToMany;endFill=0;startSize=6;endSize=6;fillColor=#dae8fc;gradientColor=#7ea6e0;strokeColor=#6c8ebf;" edge="1" parent="1" source="43" target="49">
                    <mxGeometry relative="1" as="geometry"/>
                </mxCell>
                <mxCell id="43" value="Vehiculo" style="rounded=0;whiteSpace=wrap;html=1;fontSize=12;" vertex="1" parent="1">
                    <mxGeometry x="721" y="357" width="120" height="60" as="geometry"/>
                </mxCell>
                <mxCell id="58" style="edgeStyle=none;rounded=1;html=1;fontSize=12;startArrow=ERone;startFill=0;endArrow=ERoneToMany;endFill=0;startSize=6;endSize=6;fillColor=#60a917;strokeColor=#2D7600;" edge="1" parent="1" source="44" target="43">
                    <mxGeometry relative="1" as="geometry">
                        <mxPoint x="781" y="462" as="targetPoint"/>
                        <Array as="points"/>
                    </mxGeometry>
                </mxCell>
                <mxCell id="44" value="Marca" style="rounded=0;whiteSpace=wrap;html=1;fontSize=12;" vertex="1" parent="1">
                    <mxGeometry x="514.5" y="546" width="98" height="60" as="geometry"/>
                </mxCell>
                <mxCell id="55" style="edgeStyle=none;rounded=1;html=1;entryX=0.5;entryY=1;entryDx=0;entryDy=0;fontSize=12;startArrow=ERone;startFill=0;endArrow=ERoneToMany;endFill=0;startSize=6;endSize=6;exitX=0.5;exitY=0;exitDx=0;exitDy=0;fillColor=#1ba1e2;strokeColor=#006EAF;" edge="1" parent="1" source="45" target="43">
                    <mxGeometry relative="1" as="geometry">
                        <Array as="points">
                            <mxPoint x="585" y="532"/>
                            <mxPoint x="774" y="476"/>
                        </Array>
                    </mxGeometry>
                </mxCell>
                <mxCell id="45" value="TipoVehiculo" style="rounded=0;whiteSpace=wrap;html=1;fontSize=12;" vertex="1" parent="1">
                    <mxGeometry x="392" y="546" width="98" height="60" as="geometry"/>
                </mxCell>
                <mxCell id="125" style="edgeStyle=none;rounded=1;html=1;exitX=1;exitY=0.5;exitDx=0;exitDy=0;fontSize=12;startArrow=ERone;startFill=0;endArrow=ERoneToMany;endFill=0;startSize=6;endSize=6;" edge="1" parent="1" source="49" target="95">
                    <mxGeometry relative="1" as="geometry"/>
                </mxCell>
                <mxCell id="49" value="InspeccionVehiculo" style="rounded=0;whiteSpace=wrap;html=1;fontSize=12;" vertex="1" parent="1">
                    <mxGeometry x="812" y="546" width="120" height="60" as="geometry"/>
                </mxCell>
                <mxCell id="81" value="Producto" style="rounded=0;whiteSpace=wrap;html=1;fontSize=12;" vertex="1" parent="1">
                    <mxGeometry x="392" y="329" width="98" height="35" as="geometry"/>
                </mxCell>
                <mxCell id="83" style="edgeStyle=none;rounded=0;html=1;entryX=0;entryY=0.5;entryDx=0;entryDy=0;fontSize=12;startArrow=ERone;startFill=0;endArrow=ERoneToMany;endFill=0;startSize=6;endSize=6;fillColor=#008a00;strokeColor=#005700;" edge="1" parent="1" source="82" target="81">
                    <mxGeometry relative="1" as="geometry">
                        <Array as="points">
                            <mxPoint x="378" y="347"/>
                        </Array>
                    </mxGeometry>
                </mxCell>
                <mxCell id="82" value="TipoProducto" style="rounded=0;whiteSpace=wrap;html=1;fontSize=12;" vertex="1" parent="1">
                    <mxGeometry x="259" y="301" width="98" height="33.5" as="geometry"/>
                </mxCell>
                <mxCell id="86" style="edgeStyle=none;rounded=1;html=1;fontSize=12;startArrow=ERone;startFill=0;endArrow=ERoneToMany;endFill=0;startSize=6;endSize=6;fillColor=#d80073;strokeColor=#A50040;" edge="1" parent="1" source="84" target="81">
                    <mxGeometry relative="1" as="geometry">
                        <mxPoint x="392" y="350" as="targetPoint"/>
                        <Array as="points">
                            <mxPoint x="315" y="347"/>
                        </Array>
                    </mxGeometry>
                </mxCell>
                <mxCell id="84" value="Movimiento" style="rounded=0;whiteSpace=wrap;html=1;fontSize=12;strokeWidth=1;" vertex="1" parent="1">
                    <mxGeometry x="140" y="350" width="105" height="35" as="geometry"/>
                </mxCell>
                <mxCell id="90" style="edgeStyle=none;rounded=1;html=1;fontSize=12;startArrow=ERone;startFill=0;endArrow=ERoneToMany;endFill=0;startSize=6;endSize=6;fillColor=#0050ef;strokeColor=#001DBC;" edge="1" parent="1" source="88" target="81">
                    <mxGeometry relative="1" as="geometry">
                        <Array as="points">
                            <mxPoint x="336" y="347"/>
                        </Array>
                    </mxGeometry>
                </mxCell>
                <mxCell id="88" value="Stock" style="rounded=0;whiteSpace=wrap;html=1;strokeWidth=1;fontSize=12;" vertex="1" parent="1">
                    <mxGeometry x="140" y="406" width="105" height="28" as="geometry"/>
                </mxCell>
                <mxCell id="94" style="edgeStyle=none;rounded=1;html=1;fontSize=12;startArrow=ERone;startFill=0;endArrow=ERoneToMany;endFill=0;startSize=6;endSize=6;fillColor=#60a917;strokeColor=#2D7600;" edge="1" parent="1" source="91" target="81">
                    <mxGeometry relative="1" as="geometry">
                        <Array as="points">
                            <mxPoint x="343" y="347"/>
                        </Array>
                    </mxGeometry>
                </mxCell>
                <mxCell id="91" value="Proveedor" style="rounded=0;whiteSpace=wrap;html=1;strokeWidth=1;fontSize=12;" vertex="1" parent="1">
                    <mxGeometry x="140" y="455" width="105" height="35" as="geometry"/>
                </mxCell>
                <mxCell id="93" style="edgeStyle=none;rounded=0;html=1;fontSize=12;startArrow=ERone;startFill=0;endArrow=ERoneToMany;endFill=0;startSize=6;endSize=6;" edge="1" parent="1" source="92" target="84">
                    <mxGeometry relative="1" as="geometry"/>
                </mxCell>
                <mxCell id="92" value="TipoMovimiento" style="rounded=0;whiteSpace=wrap;html=1;strokeWidth=1;fontSize=12;" vertex="1" parent="1">
                    <mxGeometry y="350" width="98" height="35" as="geometry"/>
                </mxCell>
                <mxCell id="95" value="ParteVehiculo" style="rounded=0;whiteSpace=wrap;html=1;strokeWidth=1;fontSize=12;" vertex="1" parent="1">
                    <mxGeometry x="1014" y="661" width="120" height="60" as="geometry"/>
                </mxCell>
                <mxCell id="97" style="edgeStyle=none;rounded=1;html=1;fontSize=12;startArrow=ERone;startFill=0;endArrow=ERoneToMany;endFill=0;startSize=6;endSize=6;" edge="1" parent="1" source="96" target="95">
                    <mxGeometry relative="1" as="geometry"/>
                </mxCell>
                <mxCell id="96" value="EstadoParte" style="rounded=0;whiteSpace=wrap;html=1;strokeWidth=1;fontSize=12;" vertex="1" parent="1">
                    <mxGeometry x="1260" y="728" width="120" height="60" as="geometry"/>
                </mxCell>
                <mxCell id="141" style="edgeStyle=none;rounded=1;html=1;fontSize=12;startArrow=ERone;startFill=0;endArrow=ERoneToMany;endFill=0;startSize=6;endSize=6;" edge="1" parent="1" source="99" target="49">
                    <mxGeometry relative="1" as="geometry"/>
                </mxCell>
                <mxCell id="99" value="EstadoVehiculo" style="rounded=0;whiteSpace=wrap;html=1;strokeWidth=1;fontSize=12;" vertex="1" parent="1">
                    <mxGeometry x="644" y="665" width="120" height="60" as="geometry"/>
                </mxCell>
                <mxCell id="102" style="edgeStyle=none;rounded=1;html=1;fontSize=12;startArrow=ERone;startFill=0;endArrow=ERoneToMany;endFill=0;startSize=6;endSize=6;" edge="1" parent="1" source="101" target="99">
                    <mxGeometry relative="1" as="geometry"/>
                </mxCell>
                <mxCell id="101" value="TipoEstado" style="rounded=0;whiteSpace=wrap;html=1;strokeWidth=1;fontSize=12;" vertex="1" parent="1">
                    <mxGeometry x="476" y="721" width="120" height="60" as="geometry"/>
                </mxCell>
                <mxCell id="104" style="edgeStyle=none;rounded=1;html=1;fontSize=12;startArrow=ERone;startFill=0;endArrow=ERoneToMany;endFill=0;startSize=6;endSize=6;" edge="1" parent="1" source="103" target="17">
                    <mxGeometry relative="1" as="geometry"/>
                </mxCell>
                <mxCell id="103" value="Rol" style="rounded=0;whiteSpace=wrap;html=1;strokeWidth=1;fontSize=12;" vertex="1" parent="1">
                    <mxGeometry x="630" y="35" width="91" height="33.5" as="geometry"/>
                </mxCell>
                <mxCell id="106" style="edgeStyle=none;rounded=1;html=1;fontSize=12;startArrow=ERone;startFill=0;endArrow=ERoneToMany;endFill=0;startSize=6;endSize=6;" edge="1" parent="1" source="105" target="32">
                    <mxGeometry relative="1" as="geometry"/>
                </mxCell>
                <mxCell id="105" value="Recomendacion" style="rounded=0;whiteSpace=wrap;html=1;strokeWidth=1;fontSize=12;" vertex="1" parent="1">
                    <mxGeometry x="560" y="112" width="120" height="60" as="geometry"/>
                </mxCell>
                <mxCell id="108" value="EmpleadoServicio" style="rounded=0;whiteSpace=wrap;html=1;strokeWidth=1;fontSize=12;" vertex="1" parent="1">
                    <mxGeometry x="735" y="38" width="120" height="60" as="geometry"/>
                </mxCell>
                <mxCell id="119" style="edgeStyle=none;rounded=1;html=1;fontSize=12;startArrow=ERone;startFill=0;endArrow=ERoneToMany;endFill=0;startSize=6;endSize=6;" edge="1" parent="1" source="118" target="35">
                    <mxGeometry relative="1" as="geometry"/>
                </mxCell>
                <mxCell id="118" value="TipoEstado" style="rounded=0;whiteSpace=wrap;html=1;strokeWidth=1;fontSize=12;" vertex="1" parent="1">
                    <mxGeometry x="924" y="14" width="120" height="60" as="geometry"/>
                </mxCell>
                <mxCell id="121" style="edgeStyle=none;rounded=1;html=1;fontSize=12;startArrow=ERone;startFill=0;endArrow=ERoneToMany;endFill=0;startSize=6;endSize=6;" edge="1" parent="1" source="120" target="17">
                    <mxGeometry relative="1" as="geometry"/>
                </mxCell>
                <mxCell id="120" value="Eps" style="rounded=0;whiteSpace=wrap;html=1;strokeWidth=1;fontSize=12;" vertex="1" parent="1">
                    <mxGeometry x="427" y="7" width="77" height="28" as="geometry"/>
                </mxCell>
                <mxCell id="124" style="edgeStyle=none;rounded=1;html=1;fontSize=12;startArrow=ERone;startFill=0;endArrow=ERoneToMany;endFill=0;startSize=6;endSize=6;" edge="1" parent="1" source="123" target="17">
                    <mxGeometry relative="1" as="geometry"/>
                </mxCell>
                <mxCell id="123" value="Arl" style="rounded=0;whiteSpace=wrap;html=1;strokeWidth=1;fontSize=12;" vertex="1" parent="1">
                    <mxGeometry x="525" y="7" width="77" height="28" as="geometry"/>
                </mxCell>
                <mxCell id="127" style="edgeStyle=none;rounded=1;html=1;fontSize=12;startArrow=ERone;startFill=0;endArrow=ERoneToMany;endFill=0;startSize=6;endSize=6;fillColor=#d80073;strokeColor=#A50040;" edge="1" parent="1" source="126" target="43">
                    <mxGeometry relative="1" as="geometry"/>
                </mxCell>
                <mxCell id="126" value="Soat" style="rounded=0;whiteSpace=wrap;html=1;strokeWidth=1;fontSize=12;" vertex="1" parent="1">
                    <mxGeometry x="658" y="546" width="84" height="60" as="geometry"/>
                </mxCell>
                <mxCell id="144" style="edgeStyle=none;rounded=1;html=1;fontSize=12;startArrow=ERone;startFill=0;endArrow=ERoneToMany;endFill=0;startSize=6;endSize=6;" edge="1" parent="1" source="129" target="34">
                    <mxGeometry relative="1" as="geometry"/>
                </mxCell>
                <mxCell id="129" value="Historial" style="rounded=0;whiteSpace=wrap;html=1;strokeWidth=1;fontSize=12;" vertex="1" parent="1">
                    <mxGeometry x="1253" y="218.5" width="120" height="60" as="geometry"/>
                </mxCell>
                <mxCell id="137" value="PartesIntervenidas" style="rounded=0;whiteSpace=wrap;html=1;strokeWidth=1;fontSize=12;" vertex="1" parent="1">
                    <mxGeometry x="1044" y="311.75" width="120" height="60" as="geometry"/>
                </mxCell>
            </root>
        </mxGraphModel>
    </diagram>
</mxfile>